<svg width="65" height="64" viewBox="0 0 65 64" fill="none" xmlns="http://www.w3.org/2000/svg">
<rect x="0.161133" width="64" height="64" fill="white"/>
<path d="M32.1604 22.0949C31.2462 22.0949 30.3694 22.458 29.723 23.1045C29.0765 23.7509 28.7134 24.6277 28.7134 25.5419C28.7134 26.4561 29.0765 27.3329 29.723 27.9793C30.3694 28.6258 31.2462 28.989 32.1604 28.989C33.0746 28.989 33.9514 28.6258 34.5979 27.9793C35.2443 27.3329 35.6075 26.4561 35.6075 25.5419C35.6075 24.6277 35.2443 23.7509 34.5979 23.1045C33.9514 22.458 33.0746 22.0949 32.1604 22.0949V22.0949Z" fill="#ED5521"/>
<path d="M45.567 27.1966C45.567 19.6165 39.5657 13.4773 32.1614 13.4773C24.7572 13.4773 18.7559 19.6199 18.7559 27.1966C18.7559 36.8035 32.1614 50.5227 32.1614 50.5227C32.1614 50.5227 45.567 36.8035 45.567 27.1966Z" stroke="#ED5521" stroke-width="2.72435"/>
</svg>
