<svg width="80" height="80" viewBox="0 0 80 80" fill="none" xmlns="http://www.w3.org/2000/svg">
<rect width="80" height="80" fill="#ED5521"/>
<path d="M25.6887 60.0338L25.7431 60.0109C32.1882 57.2491 34.535 55.0683 37.5057 48.7147C38.0495 47.547 38.4187 46.76 38.4187 46.76L41.5525 49.8938L45.7224 45.724L41.4667 41.4682L38.5675 38.5691L34.2746 34.2761L30.1047 38.446L33.27 41.6113L31.2724 42.5443C24.9131 45.515 22.7323 47.859 19.9676 54.3098L25.6887 60.0338Z" stroke="white" stroke-width="2.784" stroke-linejoin="round"/>
<path d="M57.1703 19.9664L60.0322 22.8283L55.7393 29.9832L52.8773 31.4142L42.145 42.1465L37.852 37.8536L48.5844 27.1213L50.0154 24.2593L57.1703 19.9664Z" stroke="white" stroke-width="2.784" stroke-linejoin="round"/>
</svg>
