<svg width="80" height="80" viewBox="0 0 80 80" fill="none" xmlns="http://www.w3.org/2000/svg">
<rect width="80" height="80" fill="#ED5521"/>
<path d="M32.5965 39.7385C32.5271 41.7022 33.2407 43.6129 34.5801 45.0504C35.9196 46.488 37.7752 47.3346 39.7388 47.4039C41.7025 47.4733 43.6132 46.7598 45.0508 45.4203C46.4883 44.0809 47.3349 42.2252 47.4042 40.2616C47.4736 38.2979 46.7601 36.3872 45.4206 34.9496C44.0812 33.5121 42.2255 32.6655 40.2619 32.5962C38.2983 32.5268 36.3875 33.2403 34.95 34.5798C33.5124 35.9192 32.6658 37.7749 32.5965 39.7385V39.7385Z" stroke="white" stroke-width="2.3"/>
<path d="M62.2256 43.7043V36.2958H58.0991C57.6138 33.9436 56.7248 31.7358 55.4394 29.7985L58.3324 26.9055L53.0983 21.664L50.2053 24.557C48.2606 23.2716 46.0677 22.3308 43.7044 21.8529V17.7745H36.2959V21.8529C33.9326 22.3308 31.7656 23.2976 29.8209 24.5829L26.9019 21.664L21.6641 26.9018L24.5905 29.8282C23.3088 31.7692 22.3642 33.9399 21.8827 36.2958H17.7747V43.7043H21.853C22.3309 46.0676 23.2977 48.2346 24.5831 50.1793L21.6641 53.0982L26.9019 58.336L29.8283 55.4097C31.7656 56.6913 33.9363 57.6396 36.2922 58.1175V62.2255H43.7007V58.1471C46.064 57.6693 48.231 56.7025 50.1757 55.4171L53.0946 58.336L58.3324 53.0982L55.4061 50.1719C56.6878 48.2346 57.636 46.0639 58.1139 43.708H62.2256V43.7043Z" stroke="white" stroke-width="2.3" stroke-linejoin="round"/>
</svg>
