<svg width="80" height="80" viewBox="0 0 80 80" fill="none" xmlns="http://www.w3.org/2000/svg">
<rect width="80" height="80" fill="#ED5521"/>
<path d="M21.8914 21.8914H34.4887V56.534H21.8914V21.8914Z" stroke="white" stroke-width="3" stroke-linejoin="round"/>
<path d="M53.3916 33.9337L53.3918 33.9339C53.4197 33.9618 53.4197 34.0083 53.3914 34.0364L53.3886 34.0392L46.7089 40.7189L46.7087 40.7191L40.7128 46.7178V46.5078L41.0391 46.1813L45.4923 41.725L46.5522 40.6643L45.4919 39.604L40.7128 34.8249V34.6176L45.5972 39.5019L46.6579 40.5626L47.7185 39.5019L52.1717 35.0488L53.2321 33.9884L52.1719 32.9277L45.4922 26.2448L44.4311 25.1833L43.3702 26.2449L40.7128 28.9042V28.6918L44.3756 25.029C44.376 25.0289 44.3764 25.0287 44.3769 25.0285C44.387 25.0246 44.4062 25.0197 44.4317 25.0197C44.4571 25.0197 44.4769 25.0246 44.488 25.0289C44.4894 25.0294 44.4904 25.0299 44.4913 25.0303L53.3916 33.9337ZM47.0115 49.1153L47.1608 48.9659V54.9595V56.4595H48.6608H54.9595H56.4595V54.9595V45.5115V44.0115H54.9595H52.1152L52.2646 43.8622H56.5342C56.575 43.8622 56.6088 43.8961 56.6088 43.9369V56.5342C56.6088 56.575 56.575 56.6089 56.5342 56.6089H47.0862H40.7128V56.4595H45.5115H47.0115V54.9595V49.1153ZM28.1373 50.189C28.1514 50.175 28.1703 50.1672 28.1901 50.1672C28.2099 50.1672 28.2289 50.175 28.2429 50.189C28.2569 50.203 28.2648 50.222 28.2648 50.2418C28.2648 50.2616 28.2569 50.2806 28.2429 50.2946C28.2289 50.3086 28.21 50.3165 28.1901 50.3165C28.1703 50.3165 28.1513 50.3086 28.1373 50.2946C28.1233 50.2806 28.1155 50.2616 28.1155 50.2418C28.1155 50.222 28.1233 50.203 28.1373 50.189Z" fill="white" stroke="white" stroke-width="3"/>
</svg>
