<svg width="55" height="55" viewBox="0 0 55 55" fill="none" xmlns="http://www.w3.org/2000/svg">
<rect width="55" height="55" fill="#ED5521"/>
<path d="M27.5002 19.2775C26.7413 19.2775 26.0134 19.579 25.4768 20.1156C24.9402 20.6522 24.6387 21.3801 24.6387 22.139C24.6387 22.8979 24.9402 23.6257 25.4768 24.1624C26.0134 24.699 26.7413 25.0005 27.5002 25.0005C28.2591 25.0005 28.9869 24.699 29.5235 24.1624C30.0602 23.6257 30.3617 22.8979 30.3617 22.139C30.3617 21.3801 30.0602 20.6522 29.5235 20.1156C28.9869 19.579 28.2591 19.2775 27.5002 19.2775V19.2775Z" fill="white"/>
<path d="M38.6297 23.5125C38.6297 17.2201 33.6479 12.1238 27.5014 12.1238C21.3549 12.1238 16.373 17.223 16.373 23.5125C16.373 31.4875 27.5014 42.8763 27.5014 42.8763C27.5014 42.8763 38.6297 31.4875 38.6297 23.5125Z" stroke="white" stroke-width="2"/>
</svg>
